<svg width="78" height="26" viewBox="0 0 78 26" fill="none" xmlns="http://www.w3.org/2000/svg">
<path d="M19 13H5" stroke="black" stroke-width="2" stroke-linecap="round" stroke-linejoin="round"/>
<path d="M12 6L5 13L12 20" stroke="black" stroke-width="2" stroke-linecap="round" stroke-linejoin="round"/>
<path d="M30.2598 21V6.78125H35.0352C35.8099 6.78125 36.513 6.85938 37.1445 7.01562C37.7826 7.17188 38.3262 7.40951 38.7754 7.72852C39.2246 8.04753 39.5697 8.45117 39.8105 8.93945C40.0579 9.42773 40.1816 10.0039 40.1816 10.668C40.1751 11.0977 40.097 11.5046 39.9473 11.8887C39.804 12.2663 39.5892 12.5983 39.3027 12.8848C39.1465 13.041 38.9674 13.1842 38.7656 13.3145C38.5703 13.4447 38.3522 13.5553 38.1113 13.6465V13.6562C38.5801 13.7865 38.9512 13.9525 39.2246 14.1543C39.5046 14.3561 39.7389 14.5905 39.9277 14.8574C40.123 15.1439 40.2663 15.4564 40.3574 15.7949C40.4551 16.127 40.5039 16.472 40.5039 16.8301C40.5039 17.5137 40.3867 18.1159 40.1523 18.6367C39.918 19.1576 39.5827 19.5938 39.1465 19.9453C38.7103 20.2969 38.1797 20.5605 37.5547 20.7363C36.9297 20.9121 36.2266 21 35.4453 21H30.2598ZM33.0137 14.7305V18.7832H35.4551C35.8132 18.7832 36.1322 18.7376 36.4121 18.6465C36.6986 18.5553 36.9362 18.4316 37.125 18.2754C37.3333 18.0996 37.4896 17.888 37.5938 17.6406C37.7044 17.3932 37.7598 17.1165 37.7598 16.8105C37.7598 16.4915 37.7174 16.2051 37.6328 15.9512C37.5547 15.6973 37.4277 15.4824 37.252 15.3066C37.0762 15.1243 36.8483 14.9844 36.5684 14.8867C36.2884 14.7891 35.9564 14.737 35.5723 14.7305H33.0137ZM33.0137 12.748H35.0547C35.4714 12.7415 35.8392 12.6927 36.1582 12.6016C36.4772 12.5039 36.7344 12.3607 36.9297 12.1719C37.0924 12.0221 37.2161 11.8398 37.3008 11.625C37.3919 11.4102 37.4375 11.166 37.4375 10.8926C37.4375 10.6061 37.3984 10.3555 37.3203 10.1406C37.2487 9.92578 37.138 9.74674 36.9883 9.60352C36.793 9.40169 36.5293 9.25521 36.1973 9.16406C35.8717 9.07292 35.4876 9.02409 35.0449 9.01758H33.0137V12.748ZM48.9902 21C48.9251 20.8698 48.8698 20.7201 48.8242 20.5508C48.7786 20.3815 48.7396 20.2025 48.707 20.0137C48.5573 20.1764 48.3848 20.3294 48.1895 20.4727C47.9941 20.6159 47.7793 20.7396 47.5449 20.8438C47.304 20.9544 47.0404 21.0391 46.7539 21.0977C46.4674 21.1628 46.1582 21.1953 45.8262 21.1953C45.2858 21.1953 44.7878 21.1172 44.332 20.9609C43.8828 20.8047 43.4954 20.5866 43.1699 20.3066C42.8444 20.0267 42.5905 19.6947 42.4082 19.3105C42.2259 18.9199 42.1348 18.4967 42.1348 18.041C42.1348 17.4551 42.2487 16.9375 42.4766 16.4883C42.7044 16.0326 43.0462 15.6582 43.502 15.3652C43.9121 15.0983 44.4167 14.8965 45.0156 14.7598C45.6211 14.6165 46.3145 14.5449 47.0957 14.5449H48.6094V13.9199C48.6094 13.6725 48.5703 13.4512 48.4922 13.2559C48.4141 13.054 48.2969 12.8815 48.1406 12.7383C47.9779 12.5885 47.7728 12.4746 47.5254 12.3965C47.2845 12.3118 47.0013 12.2695 46.6758 12.2695C46.3893 12.2695 46.1419 12.3053 45.9336 12.377C45.7253 12.4421 45.556 12.5365 45.4258 12.6602C45.3086 12.7708 45.2207 12.9043 45.1621 13.0605C45.11 13.2168 45.084 13.3893 45.084 13.5781H42.3691C42.3691 13.1289 42.4668 12.7025 42.6621 12.2988C42.8639 11.8952 43.1569 11.5404 43.541 11.2344C43.9186 10.9284 44.3809 10.6875 44.9277 10.5117C45.4811 10.3294 46.1126 10.2383 46.8223 10.2383C47.4603 10.2383 48.0527 10.3164 48.5996 10.4727C49.153 10.6289 49.6315 10.86 50.0352 11.166C50.4388 11.472 50.7546 11.8594 50.9824 12.3281C51.2103 12.7904 51.3242 13.3275 51.3242 13.9395V18.4707C51.3242 19.0371 51.36 19.5059 51.4316 19.877C51.5033 20.248 51.6074 20.5671 51.7441 20.834V21H48.9902ZM46.4023 19.0957C46.6758 19.0957 46.9297 19.0632 47.1641 18.998C47.3984 18.9329 47.61 18.8483 47.7988 18.7441C47.9876 18.64 48.1504 18.5228 48.2871 18.3926C48.4238 18.2559 48.5312 18.1191 48.6094 17.9824V16.166H47.2227C46.7995 16.166 46.4382 16.2083 46.1387 16.293C45.8392 16.3711 45.5951 16.4818 45.4062 16.625C45.2174 16.7747 45.0775 16.9538 44.9863 17.1621C44.8952 17.3639 44.8496 17.5853 44.8496 17.8262C44.8496 18.015 44.8822 18.1908 44.9473 18.3535C45.0189 18.5098 45.1198 18.6432 45.25 18.7539C45.3802 18.8581 45.5397 18.9427 45.7285 19.0078C45.9238 19.0664 46.1484 19.0957 46.4023 19.0957ZM59.0781 19.0273C59.3451 19.0273 59.599 18.9883 59.8398 18.9102C60.0807 18.832 60.2923 18.7214 60.4746 18.5781C60.6569 18.4349 60.7969 18.2624 60.8945 18.0605C60.9987 17.8587 61.0443 17.6341 61.0312 17.3867H63.5898C63.6029 17.9336 63.4889 18.4414 63.248 18.9102C63.0137 19.3789 62.6914 19.7826 62.2812 20.1211C61.8711 20.4596 61.3926 20.7266 60.8457 20.9219C60.3053 21.1107 59.7324 21.2051 59.127 21.2051C58.3066 21.2051 57.5872 21.0684 56.9688 20.7949C56.3503 20.515 55.8359 20.1341 55.4258 19.6523C55.0091 19.1706 54.6934 18.6074 54.4785 17.9629C54.2702 17.3118 54.166 16.6152 54.166 15.873V15.5801C54.166 14.8379 54.2702 14.1445 54.4785 13.5C54.6868 12.849 54.9993 12.2826 55.416 11.8008C55.8327 11.319 56.347 10.9382 56.959 10.6582C57.5775 10.3783 58.2936 10.2383 59.1074 10.2383C59.7585 10.2383 60.3607 10.3359 60.9141 10.5312C61.4674 10.7266 61.946 11 62.3496 11.3516C62.7467 11.7096 63.056 12.1426 63.2773 12.6504C63.4987 13.1517 63.6029 13.7148 63.5898 14.3398H61.0312C61.0443 14.0794 61.0052 13.832 60.9141 13.5977C60.8229 13.3633 60.6895 13.1615 60.5137 12.9922C60.3379 12.8229 60.1263 12.6895 59.8789 12.5918C59.6315 12.4876 59.3613 12.4355 59.0684 12.4355C58.6387 12.4355 58.2839 12.5234 58.0039 12.6992C57.724 12.875 57.5026 13.1094 57.3398 13.4023C57.1706 13.6953 57.0501 14.0306 56.9785 14.4082C56.9134 14.7858 56.8809 15.1764 56.8809 15.5801V15.873C56.8809 16.2832 56.9134 16.6803 56.9785 17.0645C57.0436 17.4421 57.1608 17.7741 57.3301 18.0605C57.4928 18.3535 57.7142 18.5879 57.9941 18.7637C58.2806 18.9395 58.6419 19.0273 59.0781 19.0273ZM70.3867 16.6348L69.1562 17.7773V21H66.4414V6H69.1562V14.5742L69.9766 13.6367L72.8965 10.4336H76.1582L72.1738 14.8379L76.7148 21H73.3848L70.3867 16.6348Z" fill="black"/>
</svg>
