<svg width="204" height="33" viewBox="0 0 204 33" fill="none" xmlns="http://www.w3.org/2000/svg">
<path d="M12.6406 25.625L15.5 13.2031C15.875 11.5781 16.0625 10.1875 16.0625 9.03125C16.0625 8.3125 15.9896 7.67708 15.8438 7.125C15.25 4.875 13.9792 3.75 12.0312 3.75C10.0938 3.75 8.30208 4.875 6.65625 7.125C5.61458 8.55208 4.79167 10.5781 4.1875 13.2031C3.8125 14.8385 3.625 16.2344 3.625 17.3906C3.625 18.1094 3.69792 18.7396 3.84375 19.2812C4.32292 21.0833 5.39583 22.4219 7.0625 23.2969L5.35938 25.625H5.20312C3.09896 24.8542 1.65625 23.1458 0.875 20.5C0.625 19.6562 0.5 18.6979 0.5 17.625C0.5 16.3229 0.6875 14.849 1.0625 13.2031C1.77083 10.1615 2.83333 7.72917 4.25 5.90625C6.73958 2.69792 9.53646 1.09375 12.6406 1.09375C15.7031 1.09375 17.75 2.66146 18.7812 5.79688C21.25 2.66146 24.0156 1.09375 27.0781 1.09375C30.1823 1.09375 32.2396 2.69792 33.25 5.90625C33.5104 6.72917 33.6406 7.67708 33.6406 8.75C33.6406 10.0625 33.4479 11.5469 33.0625 13.2031C32.3438 16.2969 31.2917 18.6042 29.9062 20.125C29.0417 21.0729 28.1719 21.8125 27.2969 22.3438H31.7344L31.7031 22.5L29.9531 25H21.3125L21.3438 24.8438L23.0938 22.3438C24.6146 21.8646 25.9635 20.8854 27.1406 19.4062C28.4219 17.7917 29.3542 15.724 29.9375 13.2031C30.3125 11.5781 30.5 10.1875 30.5 9.03125C30.5 8.3125 30.4271 7.67708 30.2812 7.125C29.6875 4.875 28.4167 3.75 26.4688 3.75C24.5312 3.75 22.7396 4.875 21.0938 7.125C20.0625 8.53125 19.2396 10.5573 18.625 13.2031L16.0938 24.2188L12.7969 25.625H12.6406ZM40.7656 25.3125C38.4531 25.3125 36.9167 24.1094 36.1562 21.7031C35.9479 21.0469 35.8438 20.3073 35.8438 19.4844C35.8438 18.5573 35.974 17.5312 36.2344 16.4062C36.7552 14.2083 37.5365 12.4427 38.5781 11.1094C40.4531 8.70312 42.5573 7.5 44.8906 7.5C47.2448 7.5 48.7812 8.70312 49.5 11.1094C49.6979 11.776 49.7969 12.5156 49.7969 13.3281C49.7969 14.2552 49.6667 15.2812 49.4062 16.4062L48.0469 22.2812C47.9427 22.7396 48.1406 22.9688 48.6406 22.9688H49.8438L49.8125 23.125L48.0625 25.625C45.8854 25.625 44.7969 24.8438 44.7969 23.2812C44.7969 22.9792 44.8385 22.6458 44.9219 22.2812L46.2812 16.4062C46.5729 15.1146 46.7188 14.0677 46.7188 13.2656C46.7188 12.8698 46.6823 12.5208 46.6094 12.2188C46.224 10.8438 45.4427 10.1562 44.2656 10.1562C43.0885 10.1562 41.9948 10.8438 40.9844 12.2188C40.349 13.0833 39.8073 14.4792 39.3594 16.4062C39.0677 17.6667 38.9219 18.6979 38.9219 19.5C38.9219 19.9271 38.9635 20.2917 39.0469 20.5938C39.4219 21.9583 40.1927 22.6458 41.3594 22.6562H42.5625L42.5156 22.8125L40.7656 25.3125ZM59.0938 25.3125C56.8125 25.3125 55.276 24.1094 54.4844 21.7031C54.276 21.0677 54.1719 20.3438 54.1719 19.5312C54.1719 18.5833 54.3073 17.5417 54.5781 16.4062C55.0781 14.2292 55.8594 12.4635 56.9219 11.1094C58.8073 8.70312 60.9062 7.5 63.2188 7.5C65.5312 7.5 67.0677 8.70312 67.8281 11.1094C68.0365 11.7656 68.1406 12.5052 68.1406 13.3281C68.1406 14.2552 68.0104 15.2812 67.75 16.4062L66.2656 22.8125C65.776 24.9479 65 26.7135 63.9375 28.1094C62.1042 30.5156 60.0052 31.7188 57.6406 31.7188H53.875L53.9062 31.5625L55.6719 29.0625H58.25C59.5417 29.0625 60.6354 28.375 61.5312 27C62.2083 25.9583 62.7448 24.5625 63.1406 22.8125L64.625 16.4062C64.9167 15.1458 65.0625 14.1146 65.0625 13.3125C65.0625 12.8854 65.0208 12.5208 64.9375 12.2188C64.5625 10.8438 63.7812 10.1562 62.5938 10.1562C61.4062 10.1562 60.3073 10.849 59.2969 12.2344C58.6719 13.0885 58.1406 14.4792 57.7031 16.4062C57.4115 17.6875 57.2656 18.7344 57.2656 19.5469C57.2656 19.9427 57.3021 20.2917 57.375 20.5938C57.75 21.9583 58.5208 22.6458 59.6875 22.6562H60.8906L60.8438 22.8125L59.0938 25.3125ZM76.4688 3.01562C76.5938 2.48438 76.8802 2.03125 77.3281 1.65625C77.776 1.28125 78.2656 1.09375 78.7969 1.09375C79.3281 1.09375 79.7292 1.28125 80 1.65625C80.1979 1.92708 80.2969 2.22396 80.2969 2.54688C80.2969 2.67188 80.276 2.82812 80.2344 3.01562C80.0781 3.56771 79.7917 4.01562 79.375 4.35938C78.9167 4.73438 78.4219 4.92188 77.8906 4.92188C77.3698 4.92188 76.9688 4.72917 76.6875 4.34375C76.5 4.09375 76.4062 3.81771 76.4062 3.51562C76.4062 3.36979 76.4271 3.20312 76.4688 3.01562ZM75.4844 25.625C73.3073 25.625 72.2188 24.8438 72.2188 23.2812C72.2188 22.9792 72.2604 22.6458 72.3438 22.2812L75.5 8.59375L78.7969 7.1875H78.9531L75.4688 22.2812C75.3646 22.7396 75.5625 22.9688 76.0625 22.9688H77.2656L77.2344 23.125L75.4844 25.625ZM80.5938 21.75C80.5938 21.75 81.5052 21.3646 83.3281 20.5938H83.4844C83.8594 21.9688 84.6406 22.6562 85.8281 22.6562C86.9635 22.6562 87.9323 22.2812 88.7344 21.5312C89.3802 20.9271 89.7917 20.2552 89.9688 19.5156C90.0208 19.2969 90.0469 19.0885 90.0469 18.8906C90.0469 18.4115 89.8906 18.0156 89.5781 17.7031C89.1198 17.2448 88.3802 16.9323 87.3594 16.7656C86.0573 16.5573 85.0677 16.1615 84.3906 15.5781C83.7031 14.9844 83.3594 14.2083 83.3594 13.25C83.3594 12.9062 83.4062 12.526 83.5 12.1094C83.8229 10.6823 84.7656 9.48438 86.3281 8.51562C87.4219 7.83854 88.5781 7.5 89.7969 7.5C91.849 7.5 93.1094 8.48958 93.5781 10.4688L90.8438 11.625H90.6875C90.4375 10.6458 89.9323 10.1562 89.1719 10.1562C88.5469 10.1562 88.0052 10.3125 87.5469 10.625C87.0052 10.9896 86.651 11.5052 86.4844 12.1719C86.4427 12.3385 86.4219 12.4896 86.4219 12.625C86.4219 13.0417 86.5938 13.349 86.9375 13.5469C87.4167 13.8281 88.1719 14.0833 89.2031 14.3125C90.5052 14.5938 91.4948 15.0573 92.1719 15.7031C92.8281 16.3281 93.1562 17.1719 93.1562 18.2344C93.1562 18.6719 93.099 19.1562 92.9844 19.6875C92.6927 21.0312 91.7969 22.3229 90.2969 23.5625C88.8802 24.7292 87.1823 25.3125 85.2031 25.3125C82.8698 25.3125 81.3333 24.125 80.5938 21.75ZM96.2812 21.75C96.2812 21.75 97.1927 21.3646 99.0156 20.5938H99.1719C99.5469 21.9688 100.328 22.6562 101.516 22.6562C102.651 22.6562 103.62 22.2812 104.422 21.5312C105.068 20.9271 105.479 20.2552 105.656 19.5156C105.708 19.2969 105.734 19.0885 105.734 18.8906C105.734 18.4115 105.578 18.0156 105.266 17.7031C104.807 17.2448 104.068 16.9323 103.047 16.7656C101.745 16.5573 100.755 16.1615 100.078 15.5781C99.3906 14.9844 99.0469 14.2083 99.0469 13.25C99.0469 12.9062 99.0938 12.526 99.1875 12.1094C99.5104 10.6823 100.453 9.48438 102.016 8.51562C103.109 7.83854 104.266 7.5 105.484 7.5C107.536 7.5 108.797 8.48958 109.266 10.4688L106.531 11.625H106.375C106.125 10.6458 105.62 10.1562 104.859 10.1562C104.234 10.1562 103.693 10.3125 103.234 10.625C102.693 10.9896 102.339 11.5052 102.172 12.1719C102.13 12.3385 102.109 12.4896 102.109 12.625C102.109 13.0417 102.281 13.349 102.625 13.5469C103.104 13.8281 103.859 14.0833 104.891 14.3125C106.193 14.5938 107.182 15.0573 107.859 15.7031C108.516 16.3281 108.844 17.1719 108.844 18.2344C108.844 18.6719 108.786 19.1562 108.672 19.6875C108.38 21.0312 107.484 22.3229 105.984 23.5625C104.568 24.7292 102.87 25.3125 100.891 25.3125C98.5573 25.3125 97.0208 24.125 96.2812 21.75ZM111.469 20.5C111.469 20.5 112.406 20.0938 114.281 19.2812H114.438C115.052 21.5312 116.328 22.6562 118.266 22.6562C119.609 22.6562 120.938 22.0573 122.25 20.8594C123.188 20.0052 123.823 18.8958 124.156 17.5312C124.24 17.1875 124.281 16.8646 124.281 16.5625C124.281 15.9271 124.109 15.375 123.766 14.9062C123.151 14.0729 122.141 13.5 120.734 13.1875C119.193 12.8438 117.943 12.2604 116.984 11.4375C116.089 10.6667 115.641 9.69792 115.641 8.53125C115.641 8.15625 115.688 7.75 115.781 7.3125C116.229 5.42708 117.26 3.88542 118.875 2.6875C120.302 1.625 121.911 1.09375 123.703 1.09375C126.036 1.09375 127.578 2.28125 128.328 4.65625L125.578 5.82812H125.422C125.047 4.44271 124.271 3.75 123.094 3.75C122.104 3.75 121.224 4.06771 120.453 4.70312C119.693 5.32812 119.198 6.11979 118.969 7.07812C118.906 7.33854 118.875 7.57812 118.875 7.79688C118.875 8.30729 119.031 8.72396 119.344 9.04688C119.906 9.65104 120.88 10.099 122.266 10.3906C124.141 10.7865 125.557 11.599 126.516 12.8281C127.182 13.6823 127.516 14.6979 127.516 15.875C127.516 16.4375 127.443 17.0208 127.297 17.625C126.859 19.5729 125.698 21.3438 123.812 22.9375C121.938 24.5208 119.88 25.3125 117.641 25.3125C114.526 25.3125 112.469 23.7083 111.469 20.5ZM135.547 25.3125C133.234 25.3125 131.698 24.1094 130.938 21.7031C130.729 21.0469 130.625 20.3073 130.625 19.4844C130.625 18.5573 130.755 17.5312 131.016 16.4062C131.536 14.2083 132.318 12.4427 133.359 11.1094C135.234 8.70312 137.339 7.5 139.672 7.5C142.026 7.5 143.562 8.70312 144.281 11.1094C144.479 11.776 144.578 12.5156 144.578 13.3281C144.578 14.2552 144.448 15.2812 144.188 16.4062L142.828 22.2812C142.724 22.7396 142.922 22.9688 143.422 22.9688H144.625L144.594 23.125L142.844 25.625C140.667 25.625 139.578 24.8438 139.578 23.2812C139.578 22.9792 139.62 22.6458 139.703 22.2812L141.062 16.4062C141.354 15.1146 141.5 14.0677 141.5 13.2656C141.5 12.8698 141.464 12.5208 141.391 12.2188C141.005 10.8438 140.224 10.1562 139.047 10.1562C137.87 10.1562 136.776 10.8438 135.766 12.2188C135.13 13.0833 134.589 14.4792 134.141 16.4062C133.849 17.6667 133.703 18.6979 133.703 19.5C133.703 19.9271 133.745 20.2917 133.828 20.5938C134.203 21.9583 134.974 22.6458 136.141 22.6562H137.344L137.297 22.8125L135.547 25.3125ZM147.234 25.625L149.359 16.4062C149.859 14.2292 150.641 12.4635 151.703 11.1094C153.589 8.70312 155.688 7.5 158 7.5H160.109L160.062 7.65625L158.297 10.1562H157.375C156.198 10.1562 155.104 10.8438 154.094 12.2188C153.469 13.0729 152.932 14.4688 152.484 16.4062L150.688 24.2188L147.391 25.625H147.234ZM163.984 25.3125C161.672 25.3125 160.135 24.1094 159.375 21.7031C159.167 21.0469 159.062 20.3073 159.062 19.4844C159.062 18.5573 159.193 17.5312 159.453 16.4062C159.974 14.2083 160.755 12.4427 161.797 11.1094C163.672 8.70312 165.776 7.5 168.109 7.5C170.464 7.5 172 8.70312 172.719 11.1094C172.917 11.776 173.016 12.5156 173.016 13.3281C173.016 14.2552 172.885 15.2812 172.625 16.4062L171.266 22.2812C171.161 22.7396 171.359 22.9688 171.859 22.9688H173.062L173.031 23.125L171.281 25.625C169.104 25.625 168.016 24.8438 168.016 23.2812C168.016 22.9792 168.057 22.6458 168.141 22.2812L169.5 16.4062C169.792 15.1146 169.938 14.0677 169.938 13.2656C169.938 12.8698 169.901 12.5208 169.828 12.2188C169.443 10.8438 168.661 10.1562 167.484 10.1562C166.307 10.1562 165.214 10.8438 164.203 12.2188C163.568 13.0833 163.026 14.4792 162.578 16.4062C162.286 17.6667 162.141 18.6979 162.141 19.5C162.141 19.9271 162.182 20.2917 162.266 20.5938C162.641 21.9583 163.411 22.6458 164.578 22.6562H165.781L165.734 22.8125L163.984 25.3125ZM174.5 32.0312L178.109 16.4062C178.609 14.2292 179.391 12.4635 180.453 11.1094C182.339 8.70312 184.443 7.5 186.766 7.5C189.047 7.5 190.583 8.70312 191.375 11.1094C191.583 11.7448 191.688 12.474 191.688 13.2969C191.688 14.2031 191.557 15.2396 191.297 16.4062C190.714 18.9271 189.229 20.9062 186.844 22.3438H190.703L190.672 22.5L188.922 25H181.609L181.641 24.8438L183.391 22.3438C184.859 21.4583 185.917 20.6042 186.562 19.7812C187.354 18.7604 187.891 17.6354 188.172 16.4062C188.464 15.125 188.609 14.0833 188.609 13.2812C188.609 12.8646 188.568 12.5104 188.484 12.2188C188.13 10.8438 187.349 10.1562 186.141 10.1562C184.953 10.1562 183.854 10.849 182.844 12.2344C182.229 13.0781 181.698 14.4688 181.25 16.4062L177.953 30.625L174.656 32.0312H174.5ZM194.828 23.4062C194.953 22.875 195.24 22.4219 195.688 22.0469C196.135 21.6719 196.625 21.4844 197.156 21.4844C197.688 21.4844 198.089 21.6719 198.359 22.0469C198.557 22.3177 198.656 22.6146 198.656 22.9375C198.656 23.0938 198.635 23.25 198.594 23.4062C198.448 23.9583 198.161 24.4062 197.734 24.75C197.266 25.125 196.771 25.3125 196.25 25.3125C195.729 25.3125 195.328 25.1198 195.047 24.7344C194.859 24.4948 194.766 24.2135 194.766 23.8906C194.766 23.7552 194.786 23.5938 194.828 23.4062ZM203.344 0.78125H203.5L199.75 17.0312L196.453 18.4375H196.297L200.047 2.1875L203.344 0.78125Z" fill="#D2181B"/>
</svg>
