<svg width="29" height="30" viewBox="0 0 29 30" fill="none" xmlns="http://www.w3.org/2000/svg">
<path d="M14.5 16.0107C16.502 16.0107 18.125 14.3878 18.125 12.3857C18.125 10.3837 16.502 8.76074 14.5 8.76074C12.498 8.76074 10.875 10.3837 10.875 12.3857C10.875 14.3878 12.498 16.0107 14.5 16.0107Z" stroke="black" stroke-width="2" stroke-linecap="round" stroke-linejoin="round"/>
<path d="M23.5625 12.3857C23.5625 20.542 14.5 26.8857 14.5 26.8857C14.5 26.8857 5.4375 20.542 5.4375 12.3857C5.4375 9.98222 6.3923 7.67714 8.09184 5.97759C9.79139 4.27804 12.0965 3.32324 14.5 3.32324C16.9035 3.32324 19.2086 4.27804 20.9082 5.97759C22.6077 7.67714 23.5625 9.98222 23.5625 12.3857V12.3857Z" stroke="black" stroke-width="2" stroke-linecap="round" stroke-linejoin="round"/>
</svg>
