<svg width="20" height="20" viewBox="0 0 20 20" fill="none" xmlns="http://www.w3.org/2000/svg">
<path d="M10.423 16.6695L15.2688 19.8682C15.8938 20.278 16.663 19.6683 16.4803 18.9186L15.0765 13.1809C15.0386 13.0219 15.0446 12.8549 15.094 12.6993C15.1433 12.5437 15.2339 12.4057 15.3554 12.3013L19.7012 8.5328C20.2685 8.043 19.98 7.0534 19.2397 7.00342L13.567 6.62357C13.4123 6.61421 13.2635 6.55818 13.1388 6.46232C13.0142 6.36646 12.9191 6.23493 12.8652 6.08379L10.7499 0.546052C10.694 0.38602 10.592 0.247777 10.4578 0.150089C10.3236 0.0524008 10.1638 0 10 0C9.8362 0 9.67638 0.0524008 9.54221 0.150089C9.40805 0.247777 9.30605 0.38602 9.25006 0.546052L7.13483 6.08379C7.08092 6.23493 6.98583 6.36646 6.86119 6.46232C6.73654 6.55818 6.58774 6.61421 6.43296 6.62357L0.760306 7.00342C0.0199763 7.0534 -0.268464 8.043 0.298802 8.5328L4.64463 12.3013C4.7661 12.4057 4.85672 12.5437 4.90605 12.6993C4.95538 12.8549 4.96141 13.0219 4.92346 13.1809L3.62548 18.4987C3.40434 19.3984 4.32735 20.1281 5.06768 19.6383L9.57695 16.6695C9.7034 16.5859 9.85015 16.5415 10 16.5415C10.1498 16.5415 10.2966 16.5859 10.423 16.6695Z" fill="#FEFEFE"/>
</svg>
