<svg width="24" height="25" viewBox="0 0 24 25" fill="none" xmlns="http://www.w3.org/2000/svg">
<path d="M3 6.07617H5H21" stroke="black" stroke-width="2" stroke-linecap="round" stroke-linejoin="round"/>
<path d="M8 6.07617V4.07617C8 3.54574 8.21071 3.03703 8.58579 2.66196C8.96086 2.28689 9.46957 2.07617 10 2.07617H14C14.5304 2.07617 15.0391 2.28689 15.4142 2.66196C15.7893 3.03703 16 3.54574 16 4.07617V6.07617M19 6.07617V20.0762C19 20.6066 18.7893 21.1153 18.4142 21.4904C18.0391 21.8655 17.5304 22.0762 17 22.0762H7C6.46957 22.0762 5.96086 21.8655 5.58579 21.4904C5.21071 21.1153 5 20.6066 5 20.0762V6.07617H19Z" stroke="black" stroke-width="2" stroke-linecap="round" stroke-linejoin="round"/>
<path d="M10 11.0762V17.0762" stroke="black" stroke-width="2" stroke-linecap="round" stroke-linejoin="round"/>
<path d="M14 11.0762V17.0762" stroke="black" stroke-width="2" stroke-linecap="round" stroke-linejoin="round"/>
</svg>
